<?xml version="1.0" encoding="utf-8"?>
<!-- Generator: Adobe Illustrator 24.0.2, SVG Export Plug-In . SVG Version: 6.00 Build 0)  -->
<svg version="1.1" id="Camada_1" xmlns="http://www.w3.org/2000/svg" xmlns:xlink="http://www.w3.org/1999/xlink" x="0px" y="0px"
	 viewBox="0 0 100 100" style="enable-background:new 0 0 100 100;" xml:space="preserve">
<style type="text/css">
	.st0{fill:#FFFFFF;}
</style>
<path class="st0" d="M50,4C24.6,4,4,24.6,4,50s20.6,46,46,46s46-20.6,46-46S75.4,4,50,4z M50,8c23.2,0,42,18.8,42,42
	c0,0.1,0,0.3,0,0.4c-1.3-0.1-2.8-0.2-4.6-0.3c-2.7-0.1-6-0.1-9.8,0.1c0.1-1,0.2-2,0.2-3c0.2-3.7-1.1-7.2-3.1-10.3
	c0.5-1.7,1.1-3.9,1.2-6.3c0.2-2.8-0.1-5.9-2.3-8L73,22h-0.8c-5.4,0-9,2.2-11.3,4c-3.2-1.3-6.9-2-10.9-2c-4,0-7.7,0.8-11.1,2
	c-2.2-1.8-5.9-4-11.3-4h-0.8l-0.6,0.5c-2.2,2-2.4,5.1-2.3,7.9c0.1,2.5,0.7,4.7,1.2,6.5c-2.1,3.2-3.3,6.7-3.3,10.3c0,1,0.1,2,0.2,3
	c-3.6-0.2-6.8-0.2-9.4-0.1c-1.9,0.1-3.4,0.2-4.6,0.3c0-0.1,0-0.3,0-0.4C8,26.8,26.8,8,50,8z M28.8,26.3c4,0.4,7.1,2.2,8.5,3.4
	l0.9,0.8l1.2-0.5C42.5,28.7,46.1,28,50,28s7.5,0.8,10.4,2l1.2,0.5l1-0.9c1.4-1.2,4.4-3.1,8.5-3.4c0.5,0.9,1,2.2,0.9,4.1
	c-0.1,2.3-0.7,4.8-1.2,6.3l-0.3,1l0.6,0.8c2,2.7,3,5.6,2.8,8.7l0,0.1v0.1c0,5-1.8,9-5.6,11.9c-3.8,3-9.9,4.9-18.4,4.9
	s-14.6-1.9-18.4-4.9c-3.8-3-5.6-7-5.6-11.9c0-2.9,1.1-6.2,3-8.8l0.6-0.8l-0.3-0.9c-0.5-1.6-1-4.1-1.1-6.4
	C27.9,28.3,28.3,27.1,28.8,26.3z M17.8,52c1.4,0,3,0.1,4.7,0.2c0.2,0.6,0.3,1.2,0.5,1.8c-6.6,0.1-11.6,0.8-14.6,1.4
	c-0.1-1-0.2-2-0.3-3C10.3,52.2,13.5,52,17.8,52z M82.2,52.1c4.3-0.1,7.4,0.1,9.7,0.4c-0.1,1-0.2,2-0.3,3c-3.2-0.6-8.2-1.2-15-1.4
	c0.2-0.6,0.4-1.2,0.5-1.8C78.9,52.2,80.7,52.1,82.2,52.1z M23.8,56c1.2,2.4,2.9,4.5,5.2,6.3c3.1,2.4,7.1,4,12,4.9
	c-0.6,0.7-1.2,1.4-1.7,2.1l-0.1-0.1c0,0-1,0.5-2.5,0.6c-1.5,0.1-3.4,0.1-5,0.1c-2.5,0-3.5-1.2-5.3-3.3c-1-1.3-2.1-2.3-3.3-3.1
	c-1.2-0.8-2.1-1.4-3.4-1.6l-0.2,0h-0.2c-0.9,0-1.8,0.1-2.7,1c-0.4,0.5-0.7,1.4-0.5,2.1s0.7,1.2,1.1,1.5c2.7,1.8,3.2,5.4,4.9,8.6
	c1.6,3.2,5.1,4.7,8.6,4.7H36v9.6c-14.1-5-24.7-17.2-27.3-32.2C11.7,56.8,16.9,56.1,23.8,56z M75.8,56.1c7.1,0.1,12.4,0.8,15.6,1.3
	c-2.7,15-13.3,27.2-27.3,32.2V79.2c0-3.2-1-6.7-2.9-9.6c-0.5-0.9-1.2-1.7-1.9-2.5c4.6-0.9,8.4-2.6,11.4-4.8
	C72.9,60.6,74.6,58.4,75.8,56.1z M47.4,68.2H53c1.6,0,3.4,1.3,4.8,3.5S60,77,60,79.2v11.6c-3.2,0.8-6.6,1.2-10,1.2s-6.8-0.4-10-1.2
	V79.2c0-2.2,0.9-5.2,2.4-7.4C43.9,69.5,45.8,68.2,47.4,68.2z M24.6,70.6c1.7,1.8,3.8,3.4,7,3.4c1.6,0,3.5,0.1,5.4-0.1c0,0,0,0,0,0
	c-0.2,0.7-0.4,1.4-0.6,2.1h-5.6c-2.5,0-4.2-0.9-5-2.5l0,0l0,0C25.4,72.8,25,71.6,24.6,70.6z"/>
</svg>
