<svg id="Camada_1" data-name="Camada 1" xmlns="http://www.w3.org/2000/svg" viewBox="0 0 100 100"><defs><style>.cls-1{fill:#fff;}</style></defs><title>linkedin</title><path class="cls-1" d="M18,8A10,10,0,0,0,8,18V82A10,10,0,0,0,18,92H82A10,10,0,0,0,92,82V18A10,10,0,0,0,82,8Zm0,4H82a6,6,0,0,1,6,6V82a6,6,0,0,1-6,6H18a6,6,0,0,1-6-6V18A6,6,0,0,1,18,12ZM28,22a8.63,8.63,0,0,0-5.62,1.89,6.58,6.58,0,0,0-2.36,5c0,3.74,3.24,6.65,7.36,6.94h0A2.12,2.12,0,0,0,28,36c4.55,0,8-3.19,8-7,0,0,0-.07,0-.1C35.77,25,32.38,22,28,22Zm0,4c2.78,0,3.88,1.24,4,3s-1.08,3-4,3c-2.77,0-4-1.42-4-3.09a2.45,2.45,0,0,1,.94-2A4.72,4.72,0,0,1,28,26ZM22,38a2,2,0,0,0-2,2V78a2,2,0,0,0,2,2H34a2,2,0,0,0,2-2V40a2,2,0,0,0-2-2Zm18,0a2,2,0,0,0-2,2V78a2,2,0,0,0,2,2H52a2,2,0,0,0,2-2V58a7.63,7.63,0,0,1,1.25-4.39A4,4,0,0,1,59,51.91a4.34,4.34,0,0,1,3.81,1.77A7.4,7.4,0,0,1,64,58V78a2,2,0,0,0,2,2H78a2,2,0,0,0,2-2V56.52c0-5.92-1.75-10.61-4.76-13.79A15.76,15.76,0,0,0,63.63,38,17.44,17.44,0,0,0,54,40.85V40a2,2,0,0,0-2-2ZM24,42h8V76H24Zm18,0h8v3.12a2,2,0,0,0,3.6,1.2S56.74,42,63.63,42a11.65,11.65,0,0,1,8.71,3.48c2.19,2.32,3.66,5.9,3.66,11V76H68V58a11.16,11.16,0,0,0-2-6.71A8.73,8.73,0,0,0,59,47.91a8.42,8.42,0,0,0-7,3.33A11.34,11.34,0,0,0,50,58V76H42Z"/></svg>